<?xml version="1.0" encoding="utf-8"?>
<!-- Generator: Adobe Illustrator 16.0.0, SVG Export Plug-In . SVG Version: 6.00 Build 0)  -->
<!DOCTYPE svg PUBLIC "-//W3C//DTD SVG 1.1//EN" "http://www.w3.org/Graphics/SVG/1.1/DTD/svg11.dtd">
<svg version="1.1" id="Layer_1" xmlns="http://www.w3.org/2000/svg" xmlns:xlink="http://www.w3.org/1999/xlink" x="0px" y="0px"
	 width="500px" height="500px" viewBox="0 0 500 500" enable-background="new 0 0 500 500" xml:space="preserve">
<g>
	<defs>
		<rect id="SVGID_1_" width="500" height="500"/>
	</defs>
	<clipPath id="SVGID_2_">
		<use xlink:href="#SVGID_1_"  overflow="visible"/>
	</clipPath>
	<rect clip-path="url(#SVGID_2_)" fill="#E0E0FB" width="500" height="500"/>
	<g clip-path="url(#SVGID_2_)">
		<defs>
			<rect id="SVGID_3_" width="500" height="500"/>
		</defs>
		<clipPath id="SVGID_4_">
			<use xlink:href="#SVGID_3_"  overflow="visible"/>
		</clipPath>
		<g opacity="0.68" clip-path="url(#SVGID_4_)">
			<g>
				<defs>
					<rect id="SVGID_5_" x="82.891" y="98.172" width="334.219" height="293.365"/>
				</defs>
				<clipPath id="SVGID_6_">
					<use xlink:href="#SVGID_5_"  overflow="visible"/>
				</clipPath>
				<path clip-path="url(#SVGID_6_)" fill="#F5F5FF" d="M393.951,391.537H106.048c-12.789,0-23.158-10.368-23.158-23.158v-247.05
					c0-12.789,10.369-23.157,23.158-23.157h287.903c12.79,0,23.158,10.368,23.158,23.157v247.05
					C417.109,381.169,406.741,391.537,393.951,391.537"/>
			</g>
		</g>
		<path clip-path="url(#SVGID_4_)" fill="#F5F5FF" d="M386.361,85.733c0-2.891,2.344-5.235,5.235-5.235s5.235,2.344,5.235,5.235
			c0,2.892-2.344,5.236-5.235,5.236S386.361,88.625,386.361,85.733"/>
		<path clip-path="url(#SVGID_4_)" fill="#F5F5FF" d="M372.315,85.733c0-2.891,2.345-5.235,5.236-5.235
			c2.891,0,5.235,2.344,5.235,5.235c0,2.892-2.345,5.236-5.235,5.236C374.66,90.969,372.315,88.625,372.315,85.733"/>
		<path clip-path="url(#SVGID_4_)" fill="#F5F5FF" d="M358.271,85.733c0-2.891,2.344-5.235,5.235-5.235s5.235,2.344,5.235,5.235
			c0,2.892-2.344,5.236-5.235,5.236S358.271,88.625,358.271,85.733"/>
		<path clip-path="url(#SVGID_4_)" fill="#F5F5FF" d="M67.955,256.587c0-2.892,2.344-5.235,5.235-5.235
			c2.892,0,5.236,2.344,5.236,5.235s-2.344,5.235-5.236,5.235C70.299,261.822,67.955,259.479,67.955,256.587"/>
		<path clip-path="url(#SVGID_4_)" fill="#F5F5FF" d="M67.955,270.913c0-2.892,2.344-5.236,5.235-5.236
			c2.892,0,5.236,2.345,5.236,5.236c0,2.891-2.344,5.235-5.236,5.235C70.299,276.148,67.955,273.804,67.955,270.913"/>
		<path clip-path="url(#SVGID_4_)" fill="#F5F5FF" d="M67.955,285.238c0-2.892,2.344-5.235,5.235-5.235
			c2.892,0,5.236,2.344,5.236,5.235s-2.344,5.235-5.236,5.235C70.299,290.474,67.955,288.13,67.955,285.238"/>
	</g>
	<g clip-path="url(#SVGID_2_)">
		<defs>
			<rect id="SVGID_7_" width="500" height="500"/>
		</defs>
		<clipPath id="SVGID_8_">
			<use xlink:href="#SVGID_7_"  overflow="visible"/>
		</clipPath>
		<path clip-path="url(#SVGID_8_)" fill="#E03C03" d="M328.923,445.596c-0.47,0-0.936-0.205-1.254-0.6L202.844,289.795
			c-0.557-0.692-0.447-1.704,0.245-2.261c0.692-0.556,1.704-0.446,2.261,0.244l124.825,155.201c0.557,0.692,0.447,1.704-0.245,2.263
			C329.633,445.479,329.277,445.596,328.923,445.596"/>
		<path clip-path="url(#SVGID_8_)" fill="#FF6224" d="M135.295,445.596c-0.354,0-0.71-0.116-1.007-0.354
			c-0.692-0.559-0.802-1.57-0.245-2.263l124.824-155.201c0.56-0.69,1.569-0.8,2.262-0.244c0.691,0.557,0.802,1.568,0.245,2.261
			L136.549,444.996C136.232,445.391,135.765,445.596,135.295,445.596"/>
		<path clip-path="url(#SVGID_8_)" fill="#FF6224" d="M260.121,445.596c-0.47,0-0.936-0.205-1.254-0.6L134.043,289.795
			c-0.557-0.692-0.447-1.704,0.245-2.261c0.693-0.556,1.705-0.446,2.261,0.244l124.825,155.201c0.557,0.692,0.446,1.704-0.245,2.263
			C260.831,445.479,260.475,445.596,260.121,445.596"/>
		<path clip-path="url(#SVGID_8_)" fill="#E03C03" d="M157.414,292.907H99.422c-2.276,0-4.12-1.845-4.12-4.12
			c0-2.276,1.844-4.12,4.12-4.12h57.992c2.275,0,4.12,1.844,4.12,4.12C161.534,291.063,159.689,292.907,157.414,292.907"/>
		<path clip-path="url(#SVGID_8_)" fill="#FF6224" d="M324.271,292.907h-165.75c-2.274,0-4.119-1.845-4.119-4.12
			c0-2.276,1.845-4.12,4.119-4.12h165.75V292.907z"/>
		<path clip-path="url(#SVGID_8_)" fill="#E03C03" d="M202.209,366.388c0,2.485-2.015,4.5-4.5,4.5c-2.486,0-4.501-2.015-4.501-4.5
			c0-2.486,2.015-4.501,4.501-4.501C200.194,361.887,202.209,363.901,202.209,366.388"/>
		<path clip-path="url(#SVGID_8_)" fill="#FFC947" d="M271.01,366.388c0,2.485-2.016,4.5-4.501,4.5s-4.5-2.015-4.5-4.5
			c0-2.486,2.015-4.501,4.5-4.501S271.01,363.901,271.01,366.388"/>
		<path clip-path="url(#SVGID_8_)" fill="#20C3C5" d="M212.361,161.656h-60.896c-2.202,0-3.987-1.786-3.987-3.988v-45.921
			c0-2.202,1.785-3.988,3.987-3.988h60.896c2.203,0,3.988,1.786,3.988,3.988v45.921C216.349,159.87,214.564,161.656,212.361,161.656
			"/>
		<path clip-path="url(#SVGID_8_)" fill="#FFFFFF" d="M196.859,131.558h-2.163c-0.331-1.181-0.821-2.301-1.458-3.326l1.668-1.668
			c0.636-0.636,0.636-1.668,0-2.304l-2.348-2.348c-0.636-0.636-1.667-0.636-2.304,0l-1.773,1.774
			c-0.98-0.551-2.031-0.985-3.139-1.266v-2.658c0-0.9-0.73-1.629-1.629-1.629h-3.32c-0.9,0-1.629,0.729-1.629,1.629v2.689
			c-1.077,0.278-2.097,0.686-3.048,1.21l-1.947-1.946c-0.636-0.636-1.667-0.636-2.303,0l-2.348,2.348
			c-0.636,0.636-0.636,1.667,0,2.303l1.802,1.803c-0.603,0.959-1.076,2.005-1.417,3.11h-2.536c-0.899,0-1.628,0.729-1.628,1.629
			v3.32c0,0.9,0.729,1.629,1.628,1.629h2.222c0.25,1.227,0.671,2.397,1.249,3.478l-1.518,1.517c-0.635,0.636-0.635,1.667,0,2.303
			l2.349,2.348c0.636,0.636,1.667,0.636,2.303,0l1.318-1.319c1.099,0.717,2.309,1.269,3.595,1.626v1.844
			c0,0.899,0.729,1.628,1.628,1.628h3.321c0.9,0,1.629-0.729,1.629-1.628v-1.721c1.331-0.312,2.584-0.819,3.725-1.502l1.269,1.269
			c0.636,0.636,1.668,0.636,2.303,0l2.349-2.348c0.635-0.636,0.635-1.667,0-2.303l-1.303-1.303c0.646-1.11,1.132-2.322,1.431-3.61
			h2.022c0.899,0,1.629-0.729,1.629-1.628v-3.321C198.488,132.287,197.758,131.558,196.859,131.558 M183.688,143.368
			c-5.898,1.116-10.965-3.952-9.85-9.85c0.623-3.295,3.28-5.952,6.575-6.575c5.898-1.116,10.965,3.952,9.85,9.85
			C189.64,140.088,186.983,142.745,183.688,143.368"/>
		<path clip-path="url(#SVGID_8_)" fill="#FF6224" d="M300.319,131.882h-60.895c-2.203,0-3.988-1.786-3.988-3.988V81.973
			c0-2.202,1.785-3.988,3.988-3.988h60.895c2.203,0,3.988,1.786,3.988,3.988v45.921
			C304.308,130.096,302.522,131.882,300.319,131.882"/>
		<path clip-path="url(#SVGID_8_)" fill="#FFFFFF" d="M258.244,113.992c-0.412,0-0.823-0.168-1.138-0.504l-7.258-7.769
			c-0.629-0.672-0.629-1.762,0-2.433l7.381-7.899c0.628-0.672,1.646-0.672,2.273,0c0.628,0.671,0.628,1.761,0,2.433l-6.245,6.682
			l6.123,6.553c0.628,0.672,0.628,1.761,0,2.433C259.066,113.824,258.655,113.992,258.244,113.992"/>
		<path clip-path="url(#SVGID_8_)" fill="#FFFFFF" d="M281.499,113.992c-0.411,0-0.822-0.168-1.137-0.504
			c-0.628-0.672-0.628-1.762,0-2.433l6.124-6.553l-6.246-6.682c-0.628-0.672-0.628-1.761,0-2.433s1.646-0.672,2.273,0l7.382,7.899
			c0.303,0.322,0.473,0.76,0.473,1.216c0,0.457-0.17,0.894-0.473,1.217l-7.259,7.769
			C282.322,113.824,281.911,113.992,281.499,113.992"/>
		<path clip-path="url(#SVGID_8_)" fill="#FFFFFF" d="M266.269,116.127c-0.201,0-0.406-0.041-0.604-0.127
			c-0.824-0.359-1.219-1.363-0.885-2.243l7.206-18.943c0.335-0.878,1.268-1.306,2.095-0.945c0.824,0.358,1.219,1.362,0.885,2.242
			l-7.206,18.943C267.505,115.722,266.903,116.127,266.269,116.127"/>
		<path clip-path="url(#SVGID_8_)" fill="#FFFFFF" d="M351.824,142.239H206.861v-4.964c0-0.916,0.743-1.66,1.66-1.66h141.644
			c0.916,0,1.659,0.744,1.659,1.66V142.239z"/>
		<path clip-path="url(#SVGID_8_)" fill="#383873" d="M348.733,219.523H209.951c-1.706,0-3.09-1.384-3.09-3.09v-74.194h144.963
			v74.194C351.824,218.139,350.44,219.523,348.733,219.523"/>
		<path clip-path="url(#SVGID_8_)" fill="#FF6224" d="M344.866,138.927c0,0.563-0.456,1.019-1.021,1.019
			c-0.562,0-1.018-0.456-1.018-1.019c0-0.562,0.456-1.019,1.018-1.019C344.41,137.908,344.866,138.365,344.866,138.927"/>
		<path clip-path="url(#SVGID_8_)" fill="#FF6224" d="M337.86,138.927c0,0.563-0.456,1.019-1.019,1.019s-1.019-0.456-1.019-1.019
			c0-0.562,0.456-1.019,1.019-1.019S337.86,138.365,337.86,138.927"/>
		<path clip-path="url(#SVGID_8_)" fill="#FF6224" d="M330.855,138.927c0,0.563-0.456,1.019-1.019,1.019
			c-0.563,0-1.02-0.456-1.02-1.019c0-0.562,0.456-1.019,1.02-1.019C330.399,137.908,330.855,138.365,330.855,138.927"/>
		<path clip-path="url(#SVGID_8_)" fill="#20C3C5" d="M294.873,152.683h-80.497c-0.774,0-1.401-0.627-1.401-1.401
			s0.627-1.401,1.401-1.401h80.497c0.773,0,1.401,0.627,1.401,1.401S295.646,152.683,294.873,152.683"/>
		<path clip-path="url(#SVGID_8_)" fill="#20C3C5" d="M294.873,161.599h-80.497c-0.774,0-1.401-0.627-1.401-1.401
			s0.627-1.401,1.401-1.401h80.497c0.773,0,1.401,0.627,1.401,1.401S295.646,161.599,294.873,161.599"/>
		<path clip-path="url(#SVGID_8_)" fill="#20C3C5" d="M256.472,170.515h-42.096c-0.774,0-1.401-0.627-1.401-1.401
			s0.627-1.401,1.401-1.401h42.096c0.773,0,1.401,0.627,1.401,1.401S257.245,170.515,256.472,170.515"/>
		<path clip-path="url(#SVGID_8_)" fill="#FF6224" d="M294.873,188.346h-80.497c-0.774,0-1.401-0.627-1.401-1.401
			s0.627-1.401,1.401-1.401h80.497c0.773,0,1.401,0.627,1.401,1.401S295.646,188.346,294.873,188.346"/>
		<path clip-path="url(#SVGID_8_)" fill="#FF6224" d="M256.472,197.262h-42.096c-0.774,0-1.401-0.627-1.401-1.401
			s0.627-1.401,1.401-1.401h42.096c0.773,0,1.401,0.627,1.401,1.401S257.245,197.262,256.472,197.262"/>
		<path clip-path="url(#SVGID_8_)" fill="#20C3C5" d="M256.472,206.178h-42.096c-0.774,0-1.401-0.627-1.401-1.401
			s0.627-1.401,1.401-1.401h42.096c0.773,0,1.401,0.627,1.401,1.401S257.245,206.178,256.472,206.178"/>
		<path clip-path="url(#SVGID_8_)" fill="#FFFFFF" d="M294.873,170.515h-30.25c-0.773,0-1.401-0.627-1.401-1.401
			s0.628-1.401,1.401-1.401h30.25c0.773,0,1.401,0.627,1.401,1.401S295.646,170.515,294.873,170.515"/>
		<path clip-path="url(#SVGID_8_)" fill="#FF6224" d="M334.831,150.493l-21.39,21.39c-0.547,0.547-1.435,0.547-1.981,0
			s-0.547-1.434,0-1.981l21.39-21.39c0.548-0.547,1.435-0.547,1.981,0C335.379,149.059,335.379,149.946,334.831,150.493"/>
		<path clip-path="url(#SVGID_8_)" fill="#FF6224" d="M335.759,190.958c0,6.966-5.647,12.613-12.613,12.613
			s-12.613-5.647-12.613-12.613s5.647-12.614,12.613-12.614S335.759,183.992,335.759,190.958"/>
		<path clip-path="url(#SVGID_8_)" fill="#20C3C5" d="M321.496,199.748c0,3.943-3.197,7.141-7.141,7.141
			c-3.944,0-7.141-3.198-7.141-7.141c0-3.944,3.196-7.141,7.141-7.141C318.299,192.607,321.496,195.804,321.496,199.748"/>
		<polyline clip-path="url(#SVGID_8_)" fill="#383873" points="206.861,211.702 206.861,237.204 230.299,213.766 		"/>
		<polygon clip-path="url(#SVGID_8_)" fill="#86BFBC" points="181.913,244.099 233.338,244.099 251.935,279.89 200.509,279.89 		"/>
		<path clip-path="url(#SVGID_8_)" fill="#FFFFFF" d="M201.55,277.242l-15.398-29.635c-0.323-0.622,0.128-1.365,0.829-1.365h44.487
			c0.349,0,0.668,0.195,0.829,0.504l15.398,29.635c0.323,0.622-0.128,1.364-0.828,1.364h-44.489
			C202.03,277.745,201.711,277.551,201.55,277.242"/>
		<rect x="200.51" y="279.89" clip-path="url(#SVGID_8_)" fill="#B8E3E2" width="41.649" height="4.777"/>
		<path clip-path="url(#SVGID_8_)" fill="#9FCCC9" d="M277.941,279.89h-41.1c-1.319,0-2.388,1.069-2.388,2.389
			s1.069,2.389,2.388,2.389h41.1c1.319,0,2.389-1.069,2.389-2.389S279.261,279.89,277.941,279.89"/>
		<path clip-path="url(#SVGID_8_)" fill="#B8E3E2" d="M200.509,279.89l-18.596-35.791l-0.932,0.699
			c-0.602,0.451-0.787,1.273-0.437,1.939l19.965,37.93V279.89z"/>
		<rect x="214.647" y="282.119" clip-path="url(#SVGID_8_)" fill="#9FCCC9" width="4.585" height="0.795"/>
		<rect x="220.411" y="282.119" clip-path="url(#SVGID_8_)" fill="#9FCCC9" width="4.585" height="0.795"/>
		<rect x="226.174" y="282.119" clip-path="url(#SVGID_8_)" fill="#9FCCC9" width="4.585" height="0.795"/>
		<path clip-path="url(#SVGID_8_)" fill="#383873" d="M294.265,349.942c0,0-42.656,33.212-49.42,41.648
			c-2.552,3.194-7.001,8.791-11.61,14.526c-7.569,9.423-15.598,19.242-16.553,19.479c-1.522,0.386-14.322-9.358-14.708-11.46
			c-0.235-1.308,11.417-21.312,21.505-37.393c6.143-9.776,11.696-18.117,13.647-19.918c5.157-4.781,36.889-21.591,36.889-21.591
			L294.265,349.942z"/>
		<g opacity="0.15" clip-path="url(#SVGID_8_)">
			<g>
				<defs>
					<rect id="SVGID_9_" x="212.455" y="351.826" width="60.673" height="67.093"/>
				</defs>
				<clipPath id="SVGID_10_">
					<use xlink:href="#SVGID_9_"  overflow="visible"/>
				</clipPath>
				
					<path clip-path="url(#SVGID_10_)" fill="none" stroke="#000000" stroke-width="0.818" stroke-linecap="round" stroke-miterlimit="10" d="
					M212.864,418.51c0,0,39.85-56.722,59.855-66.274"/>
			</g>
		</g>
		<path clip-path="url(#SVGID_8_)" fill="#382424" d="M338.722,204.297c-0.45,1.029-0.965,2.101-1.544,3.195
			c-3.119,5.96-0.814,11.931-4.374,13.453c-0.214,0.086-0.45,0.172-0.718,0.226c-4.588,1.018-15.158-5.092-15.619-8.148
			c-0.461-3.055,3.259-8.287,0-8.919c-3.259-0.633-5.018,4.845-5.018,4.845c-2.68,0.279-3.634-4.213-8.029-4.213
			c-0.622,0-1.232,0.086-1.822,0.236c-2.069,0.515-3.881,1.791-5.039,2.777c-0.857,0.718-1.351,1.286-1.351,1.286
			s-3.913-2.476-3.73-7.354c0.311-7.729,3.162-13.368,10.034-14.515c0.761-8.598,7.836-13.186,17.292-13.475
			c8.286-0.258,9.53,7.193,9.723,9.047c-0.075-1.382-0.461-5.928-2.433-9.047c4.149-0.183,7.804,2.776,6.85,12.424
			c0.954-2.873,4.3-4.684,6.872-2.583c-2.38,0-4.675,4.009-4.675,4.009s2.799,1.79,4.707,5.103
			C341.434,195.378,340.834,199.419,338.722,204.297"/>
		<path clip-path="url(#SVGID_8_)" fill="#FFAD94" d="M332.804,220.946l-0.106,1.415l-0.365,5.017c0,0-7.633,6.529-11.964,0
			c-0.032-0.043-0.053-0.086-0.096-0.128c-1.341-1.994-2.552-2.691-3.655-2.82c-2.392-0.289-4.321,2.048-6.314-0.482
			c-5.703-7.236-7.977-15.62-8.705-18.975c0.59-0.15,1.2-0.236,1.822-0.236c4.396,0,5.35,4.492,8.029,4.213
			c0,0,1.759-5.478,5.018-4.846c3.259,0.633-0.461,5.864,0,8.92c0.203,1.361,2.423,3.334,5.231,5.006
			c3.27,1.962,7.343,3.517,9.927,3.216c0.161-0.021,0.311-0.043,0.461-0.075C332.354,221.117,332.59,221.032,332.804,220.946"/>
		<g opacity="0.25" clip-path="url(#SVGID_8_)">
			<g>
				<defs>
					<rect id="SVGID_11_" x="317.677" y="219.89" width="18.29" height="13.127"/>
				</defs>
				<clipPath id="SVGID_12_">
					<use xlink:href="#SVGID_11_"  overflow="visible"/>
				</clipPath>
				<path clip-path="url(#SVGID_12_)" d="M333.994,230.283c-3.441,2.348-9.745,2.733-9.745,2.733l-5.156-0.76
					c0,0-2.154-3.131-1.147-4.878c0.193-0.343,0.676-0.815,1.361-1.372c1.384-1.137,3.613-2.595,5.917-3.795
					c2.381-1.233,4.835-2.209,6.605-2.316C336.159,219.649,337.436,227.925,333.994,230.283"/>
			</g>
		</g>
		<path clip-path="url(#SVGID_8_)" fill="#20C3C5" d="M332.976,313.901c-7.676,1.479-23.917-3.045-31.689-6.539
			c-2.294-1.029-3.858-1.973-4.234-2.638c-1.49-2.626,0.011-4.642,3.709-12.982c0.419-0.943,0.858-1.962,1.33-3.065
			c2.509-5.907,2.52-18.504,2.509-29.363c-0.032-9.294-0.075-17.313,1.404-18.739c3.205-3.087,19.199-13.196,19.199-13.196
			l3.185,16.595c0,0,1.801,8.426,3.698,19.425C335.58,283.648,339.418,312.658,332.976,313.901"/>
		<path clip-path="url(#SVGID_8_)" fill="#383873" d="M338.325,321.288c0,0.761-7.644,18.589-14.055,21.14
			c-6.41,2.552-45.046-0.257-45.046-0.257l-19.104,12.489l3.998,37.628l2.787,26.222l0.086,0.847
			c-5.843,3.816-20.562,4.846-22.148,1.555c-0.011-0.011-0.011-0.021-0.011-0.021c-1.532-3.313-24.967-73.872-15.791-86.105
			c9.166-12.221,68.01-30.059,68.01-30.059c1.533,0.975,3.313,1.854,5.252,2.637c6.541,2.68,14.849,4.363,21.174,5.349
			c2.434,0.376,4.566,0.654,6.196,0.849c2.059,0.245,3.302,0.342,3.302,0.342S338.325,320.516,338.325,321.288"/>
		<path clip-path="url(#SVGID_8_)" fill="#0C2059" d="M269.415,443.938h-49.677c-0.247-0.88,0.085-1.77,0.836-2.67
			c2.015-2.423,7.064-4.856,11.931-6.957c4.621-1.994,9.059-3.709,10.549-4.889c3.506-2.776,1.887-8.18,1.79-8.512
			c0.536,1.104,2.563,1.726,5.242,1.908c5.265,0.375,13.036-0.933,16.906-3.463l-0.086-0.847c1.479,2.83,2.177,16.82,2.412,22.759
			C269.383,442.909,269.415,443.938,269.415,443.938"/>
		<path clip-path="url(#SVGID_8_)" fill="#2E4780" d="M250.086,422.819c-0.149,2.369-0.493,6.207-1.179,7.236
			c-1.018,1.532-11.975,6.882-13.497,6.367c-0.986-0.321-2.187-1.394-2.905-2.111c4.621-1.994,9.059-3.709,10.549-4.889
			c3.505-2.776,1.886-8.18,1.79-8.512C245.38,422.016,247.406,422.637,250.086,422.819"/>
		<path clip-path="url(#SVGID_8_)" fill="#2E4780" d="M269.415,443.938h-49.677c-0.247-0.88,0.085-1.77,0.836-2.67h48.744
			C269.383,442.909,269.415,443.938,269.415,443.938"/>
		<path clip-path="url(#SVGID_8_)" fill="#0C2059" d="M216.682,425.596c0,0-3.773,9.948-7.043,15.212
			c-1.297,2.102-2.53,3.463-3.398,3.131c-3.056-1.147-33.759-27.251-30.821-29.159c0.429-0.279,1.115-0.472,1.972-0.58
			c2.67-0.342,7.097,0.033,11.192,0.451c3.516,0.364,6.786,0.761,8.491,0.761c4.331,0,4.899-1.275,4.899-1.275
			c0.096,0.504,0.911,1.458,2.123,2.616C207.891,420.354,215.524,425.885,216.682,425.596"/>
		<path clip-path="url(#SVGID_8_)" fill="#2E4780" d="M204.097,416.752c-6.507,4.309-13.293,1.715-14.633,0.729
			c-0.987-0.72-0.987-2.06-0.879-2.831c3.516,0.364,6.785,0.761,8.49,0.761c4.331,0,4.899-1.275,4.899-1.275
			C202.071,414.64,202.886,415.594,204.097,416.752"/>
		<path clip-path="url(#SVGID_8_)" fill="#2E4780" d="M209.639,440.808c-1.297,2.102-2.53,3.463-3.398,3.131
			c-3.056-1.147-33.759-27.251-30.821-29.159c0.428-0.279,1.115-0.472,1.972-0.579L209.639,440.808z"/>
		<path clip-path="url(#SVGID_8_)" fill="#FFAD94" d="M301.308,281.387c-2.401,3.345-6.7,8.447-10.237,7.933
			c-0.129-0.021-0.269-0.043-0.439-0.075c-6.754-1.189-46.472-11.148-48.348-11.523c-1.909-0.376-15.277-0.504-14.516-1.908
			c0.761-1.404,8.405-5.854,10.442-5.746c2.036,0.106,10.066,2.434,18.085,2.176c8.029-0.246,29.041,0,29.041,0l1.019-1.758
			l1.501-2.595C287.436,275.673,296.816,282.02,301.308,281.387"/>
		<g opacity="0.15" clip-path="url(#SVGID_8_)">
			<g>
				<defs>
					<rect id="SVGID_13_" x="300.688" y="309.985" width="6.33" height="13.81"/>
				</defs>
				<clipPath id="SVGID_14_">
					<use xlink:href="#SVGID_13_"  overflow="visible"/>
				</clipPath>
				
					<path clip-path="url(#SVGID_14_)" fill="none" stroke="#000000" stroke-width="0.818" stroke-linecap="round" stroke-miterlimit="10" d="
					M301.308,310.395c0,0-1.83,9.744,5.302,12.991"/>
			</g>
		</g>
		<g opacity="0.15" clip-path="url(#SVGID_8_)">
			<g>
				<defs>
					<rect id="SVGID_15_" x="247.465" y="317.818" width="50.509" height="101.101"/>
				</defs>
				<clipPath id="SVGID_16_">
					<use xlink:href="#SVGID_15_"  overflow="visible"/>
				</clipPath>
				
					<path clip-path="url(#SVGID_16_)" fill="none" stroke="#000000" stroke-width="0.818" stroke-linecap="round" stroke-miterlimit="10" d="
					M297.564,318.228c0,0-47.182,20.125-49.447,26.365c-2.265,6.241,12.003,73.917,12.003,73.917"/>
			</g>
		</g>
		<g opacity="0.15" clip-path="url(#SVGID_8_)">
			<g>
				<defs>
					<rect id="SVGID_17_" x="256.047" y="312.711" width="82.278" height="79.577"/>
				</defs>
				<clipPath id="SVGID_18_">
					<use xlink:href="#SVGID_17_"  overflow="visible"/>
				</clipPath>
				<path clip-path="url(#SVGID_18_)" d="M338.325,321.288c0,0.761-7.644,18.589-14.055,21.14
					c-6.41,2.552-45.046-0.257-45.046-0.257l-19.104,12.489l3.998,37.628c0,0-8.072-42.978-8.072-45.786
					c0-2.401,53.365-17.742,67.431-33.791c5.51,0.869,9.498,1.19,9.498,1.19S338.325,320.516,338.325,321.288"/>
			</g>
		</g>
		<g opacity="0.25" clip-path="url(#SVGID_8_)">
			<g>
				<defs>
					<rect id="SVGID_19_" x="300.761" y="251.745" width="15.85" height="39.998"/>
				</defs>
				<clipPath id="SVGID_20_">
					<use xlink:href="#SVGID_19_"  overflow="visible"/>
				</clipPath>
				<path clip-path="url(#SVGID_20_)" d="M313.165,275.684c-3.313,4.695-8.651,10.656-12.404,16.059
					c0.419-0.943,0.858-1.962,1.33-3.065c2.509-5.907,2.52-18.504,2.509-29.363l11.438-7.567
					C316.037,251.746,318.514,268.104,313.165,275.684"/>
			</g>
		</g>
		<path clip-path="url(#SVGID_8_)" fill="#169799" d="M303.398,279.939c-0.493,0.45-0.997,0.9-1.501,1.318
			c-0.182,0.064-0.375,0.107-0.59,0.129c-4.491,0.633-13.872-5.714-13.453-13.497c0.031-0.578,0.493-1.736,1.243-3.248
			c3.838-7.74,15.384-24.967,17.506-24.174c0,0,7.419,1.147,9.434,11.278C317.925,261.254,311.117,272.789,303.398,279.939"/>
		<g opacity="0.25" clip-path="url(#SVGID_8_)">
			<g>
				<defs>
					<rect id="SVGID_21_" x="302.305" y="275.115" width="27.369" height="38.442"/>
				</defs>
				<clipPath id="SVGID_22_">
					<use xlink:href="#SVGID_21_"  overflow="visible"/>
				</clipPath>
				<path clip-path="url(#SVGID_22_)" d="M329.674,313.559c-1.63-0.193-3.763-0.472-6.196-0.848
					c-6.325-0.986-14.633-2.669-21.173-5.349c5.768-0.204,18.106-3.999,19.597-32.247c0.676,5.285,1.694,10.764,3.109,16.37
					C326.908,298.936,328.698,306.794,329.674,313.559"/>
			</g>
		</g>
		<g opacity="0.25" clip-path="url(#SVGID_8_)">
			<g>
				<defs>
					<rect id="SVGID_23_" x="316.616" y="218.03" width="10.013" height="7.976"/>
				</defs>
				<clipPath id="SVGID_24_">
					<use xlink:href="#SVGID_23_"  overflow="visible"/>
				</clipPath>
				<path clip-path="url(#SVGID_24_)" d="M326.629,220.378c-0.589,0.686-1.05,1.308-1.404,1.833
					c-2.305,1.201-4.534,2.659-5.917,3.795c-0.965-1.062-1.854-1.48-2.691-1.576l5.082-6.4
					C323.241,218.962,324.968,219.788,326.629,220.378"/>
			</g>
		</g>
		<g opacity="0.25" clip-path="url(#SVGID_8_)">
			<g>
				<defs>
					<rect id="SVGID_25_" x="286.277" y="267.89" width="15.03" height="21.467"/>
				</defs>
				<clipPath id="SVGID_26_">
					<use xlink:href="#SVGID_25_"  overflow="visible"/>
				</clipPath>
				<path clip-path="url(#SVGID_26_)" d="M301.308,281.387c-2.401,3.345-6.7,8.447-10.237,7.933
					c-0.129-0.021-0.269-0.043-0.439-0.075c-4.374-6.324-4.535-14.611-4.277-18.76l1.501-2.595
					C287.436,275.673,296.816,282.02,301.308,281.387"/>
			</g>
		</g>
		<g opacity="0.25" clip-path="url(#SVGID_8_)">
			<g>
				<defs>
					<rect id="SVGID_27_" x="296.559" y="198.236" width="42.163" height="22.152"/>
				</defs>
				<clipPath id="SVGID_28_">
					<use xlink:href="#SVGID_27_"  overflow="visible"/>
				</clipPath>
				<path clip-path="url(#SVGID_28_)" d="M338.722,204.297c-0.45,1.029-0.965,2.101-1.544,3.195
					c-1.533,2.926-1.747,5.842-2.005,8.254c-0.513-0.396-1.039-0.761-1.564-1.072c-3.313,1.973-5.543,4.02-6.979,5.704l-0.011,0.01
					c-4.674-1.673-9.83-5.253-10.151-7.365c-0.461-3.055,3.259-8.287,0-8.919c-3.259-0.633-5.018,4.845-5.018,4.845
					c-2.68,0.279-3.634-4.213-8.029-4.213c-0.622,0-1.232,0.086-1.822,0.236c-2.069,0.515-3.881,1.791-5.039,2.777
					c0,0,4.953-6.957,12.727-5.553c0,0-1.138-2.166-6.369-1.908c10.956-3.57,17.956-2.166,21.333,1.779
					C327.005,205.294,333.469,209.282,338.722,204.297"/>
			</g>
		</g>
		<path clip-path="url(#SVGID_8_)" fill="#B8E3E2" d="M360.998,354.66H322.78c0,0,30.317-8.92,30.317-69.039
			c0-0.771,0-1.533-0.011-2.294c-0.311-40.18-8.899-62.338-19.479-68.653c3.313-1.961,7.719-3.838,13.538-5.135
			c2.541-0.579,5.34-1.04,8.438-1.361c26.168-2.669,47.072,7.59,49.559,19.2C407.621,238.988,392.323,354.66,360.998,354.66"/>
		<path clip-path="url(#SVGID_8_)" fill="#86BFBC" d="M353.098,285.621c0,60.119-30.317,69.039-30.317,69.039h-62.659l2.604-1.855
			l16.499-10.634l33.114-2.294c1.78-7.387,6.625-7.634,14.012-8.405c4.299-0.439,4.717-7.697,3.409-17.292
			c-0.954-6.903-2.798-15.019-4.749-22.694c-1.415-5.606-2.435-11.085-3.109-16.37c-0.804-6.186-1.157-12.093-1.189-17.656
			c-0.097-12.671,1.448-23.499,3.076-31.325c0.15-0.761,0.312-1.49,0.472-2.186c0-0.022,0.011-0.054,0.011-0.076
			c0.15-0.332,0.806-1.683,2.349-3.484l0.01-0.01c1.437-1.683,3.667-3.731,6.979-5.704c0.525,0.311,1.052,0.676,1.564,1.072
			c9.853,7.504,17.613,29.406,17.914,67.581C353.098,284.088,353.098,284.85,353.098,285.621"/>
		<path clip-path="url(#SVGID_8_)" fill="#B8E3E2" d="M341.005,443.938h-45.11c-1.544,0-2.22-1.951-0.997-2.905l11.288-8.834
			c5.008-3.924,7.934-9.938,7.934-16.295V354.66h8.661v61.244c0,6.357,2.927,12.371,7.944,16.295l11.277,8.834
			C343.225,441.987,342.549,443.938,341.005,443.938"/>
		<g opacity="0.25" clip-path="url(#SVGID_8_)">
			<g>
				<defs>
					<rect id="SVGID_29_" x="351.009" y="210.076" width="33.653" height="143.366"/>
				</defs>
				<clipPath id="SVGID_30_">
					<use xlink:href="#SVGID_29_"  overflow="visible"/>
				</clipPath>
				
					<path clip-path="url(#SVGID_30_)" fill="none" stroke="#000000" stroke-width="0.818" stroke-linecap="round" stroke-miterlimit="10" d="
					M375.411,210.485c0,0,0.251,0.642,0.674,1.927"/>
				
					<path clip-path="url(#SVGID_30_)" fill="none" stroke="#000000" stroke-width="0.818" stroke-linecap="round" stroke-miterlimit="10" stroke-dasharray="4.003,4.003" d="
					M377.249,216.241c1.58,5.566,3.877,15.18,5.653,28.877c4.148,32-0.161,77.063-28.531,105.134"/>
				
					<path clip-path="url(#SVGID_30_)" fill="none" stroke="#000000" stroke-width="0.818" stroke-linecap="round" stroke-miterlimit="10" d="
					M352.926,351.647c-0.496,0.467-0.998,0.929-1.508,1.385"/>
			</g>
		</g>
		<g opacity="0.15" clip-path="url(#SVGID_8_)">
			<g>
				<defs>
					<rect id="SVGID_31_" x="314.119" y="354.66" width="8.662" height="20.368"/>
				</defs>
				<clipPath id="SVGID_32_">
					<use xlink:href="#SVGID_31_"  overflow="visible"/>
				</clipPath>
				<path clip-path="url(#SVGID_32_)" d="M322.78,354.66v16.723c-3.001,1.565-6.046,2.767-8.661,3.646V354.66H322.78z"/>
			</g>
		</g>
		<g opacity="0.15" clip-path="url(#SVGID_8_)">
			<g>
				<defs>
					<rect id="SVGID_33_" x="260.121" y="257.459" width="74.78" height="97.201"/>
				</defs>
				<clipPath id="SVGID_34_">
					<use xlink:href="#SVGID_33_"  overflow="visible"/>
				</clipPath>
				<path clip-path="url(#SVGID_34_)" d="M334.755,328.674c-2.036,6.368-14.761,5.228-16.306,9.938
					c-3.275,9.994-5.092,5.596-17.688,6.872c-7.203,0.729-12.435,5.35-15.587,9.177h-25.053l2.604-1.855l16.499-10.634l33.114-2.294
					c1.78-7.387,6.625-7.634,14.012-8.405c4.3-0.439,4.716-7.697,3.409-17.292c-0.954-6.903-2.798-15.019-4.749-22.694
					c-1.415-5.606-2.434-11.085-3.109-16.37c-0.804-6.186-1.157-12.093-1.189-17.656
					C325.61,282.995,336.267,323.957,334.755,328.674"/>
			</g>
		</g>
		<g opacity="0.15" clip-path="url(#SVGID_8_)">
			<g>
				<defs>
					<rect id="SVGID_35_" x="322.781" y="209.539" width="35.687" height="145.121"/>
				</defs>
				<clipPath id="SVGID_36_">
					<use xlink:href="#SVGID_35_"  overflow="visible"/>
				</clipPath>
				<path clip-path="url(#SVGID_36_)" d="M353.098,285.621c0-0.771,0-1.533-0.011-2.294c-0.311-40.18-8.898-62.338-19.479-68.653
					c3.313-1.961,7.718-3.838,13.539-5.135c-1.747,2.519-3.569,6.304-2.712,10.346c1.533,7.15,18.857,34.658,12.231,78.729
					c-4.781,31.796-3.194,48.338,1.802,56.046H322.78C322.78,354.66,353.098,345.74,353.098,285.621"/>
			</g>
		</g>
		<g opacity="0.25" clip-path="url(#SVGID_8_)">
			<g>
				<defs>
					<rect id="SVGID_37_" x="108.686" y="242.472" width="25.75" height="14.28"/>
				</defs>
				<clipPath id="SVGID_38_">
					<use xlink:href="#SVGID_37_"  overflow="visible"/>
				</clipPath>
				<path clip-path="url(#SVGID_38_)" d="M134.437,252.871c-0.021,1.394-0.15,2.712-0.408,3.881h-12.296
					c-3.612-2.402-9.508-7.151-13.046-14.28c3.291,3.581,8.908,7.944,14.633,9.273C128.314,252.903,132.036,252.41,134.437,252.871"
					/>
			</g>
		</g>
		<path clip-path="url(#SVGID_8_)" fill="#20C3C5" d="M162.995,204.051c-1.372,4.985-7.665,14.655-13.411,25.01
			c-6.282,11.3-11.9,23.403-9.702,31.088c0.547,1.93,0.794,3.345,0.794,4.363c0.021,3.345-2.52,2.305-5.082,0.408
			c-2.616-1.94-5.264-4.771-5.264-4.771l0.193-14.9c0,0-8.447-7.761-1.511-24.742c0.44-1.073,0.943-2.187,1.511-3.345
			c9.552-19.297,23.874-39.547,10.313-45.282C159.565,170.733,165.868,193.62,162.995,204.051"/>
		<g opacity="0.53" clip-path="url(#SVGID_8_)">
			<g>
				<defs>
					<rect id="SVGID_39_" x="130.973" y="171.88" width="21.506" height="76.847"/>
				</defs>
				<clipPath id="SVGID_40_">
					<use xlink:href="#SVGID_39_"  overflow="visible"/>
				</clipPath>
				<path clip-path="url(#SVGID_40_)" d="M140.836,171.88c3.506,0.769,6.557,3.124,8.489,6.123c0.522,0.732,0.891,1.553,1.304,2.348
					c0.175,0.412,0.328,0.834,0.492,1.251c0.172,0.415,0.323,0.837,0.427,1.274l0.36,1.296c0.121,0.431,0.169,0.879,0.258,1.318
					l0.231,1.325c0.027,0.45,0.066,0.9,0.082,1.35c0,1.806-0.371,3.578-0.804,5.314c-0.434,1.741-1.026,3.434-1.632,5.118
					c-1.251,3.355-2.697,6.631-4.19,9.88c-2.992,6.496-6.217,12.879-9.065,19.422c-1.41,3.273-2.764,6.58-3.767,9.985
					c-0.512,1.699-0.899,3.43-1.126,5.169c-0.221,1.733-0.211,3.522,0.347,5.118l0.004,0.011c0.074,0.214-0.038,0.447-0.252,0.522
					c-0.213,0.074-0.447-0.038-0.521-0.252c0,0-0.001-0.003-0.002-0.004c-0.608-1.804-0.578-3.696-0.338-5.488
					c0.252-1.8,0.667-3.563,1.202-5.282c1.051-3.444,2.444-6.753,3.891-10.027c2.921-6.538,6.206-12.889,9.256-19.347
					c1.522-3.23,2.995-6.484,4.274-9.815c0.619-1.671,1.225-3.351,1.671-5.075c0.447-1.718,0.831-3.472,0.847-5.25
					c-0.011-0.442-0.046-0.883-0.067-1.326l-0.218-1.316c-0.083-0.437-0.127-0.883-0.243-1.313l-0.345-1.29
					c-0.099-0.435-0.246-0.855-0.412-1.268c-0.159-0.416-0.307-0.836-0.477-1.248c-0.402-0.793-0.761-1.612-1.272-2.344
					C147.349,175.061,144.334,172.682,140.836,171.88"/>
			</g>
		</g>
		<path clip-path="url(#SVGID_8_)" fill="#169799" d="M154.397,234.164c-5.725,15.094,0,26.543-8.598,28.173
			c-3.934,0.75-5.671-2.166-6.389-5.553c-0.857-4.01-0.289-8.673-0.289-8.673s1.458-3.731,4.524-7.354
			C146.144,237.809,149.691,234.935,154.397,234.164"/>
		<path clip-path="url(#SVGID_8_)" fill="#B8E3E2" d="M134.437,252.871c-0.032,3.516-0.826,6.496-2.455,8.063
			c-0.161,0.16-0.322,0.299-0.472,0.416c-4.063,3.293-6.657-2.732-6.657-2.732s-10.806-5.328-16.166-16.145
			c-4.106-8.308-5.017-19.865,4.642-34.723c1.415,10.581,7.214,17.785,12.961,24.624v0.011c0.718,0.858,1.425,1.694,2.133,2.541
			C132.399,239.695,134.489,247.028,134.437,252.871"/>
		<g opacity="0.53" clip-path="url(#SVGID_8_)">
			<g>
				<defs>
					<rect id="SVGID_41_" x="112.218" y="207.751" width="18.563" height="50.898"/>
				</defs>
				<clipPath id="SVGID_42_">
					<use xlink:href="#SVGID_41_"  overflow="visible"/>
				</clipPath>
				<path clip-path="url(#SVGID_42_)" d="M113.325,207.751c-0.946,4.548-1.182,9.238-0.76,13.85
					c0.476,4.596,1.732,9.173,4.222,13.077c2.397,3.966,5.73,7.235,8.741,10.791c1.498,1.783,2.935,3.672,3.935,5.833
					c1.013,2.148,1.471,4.584,1.273,6.972c-0.018,0.226-0.216,0.393-0.441,0.374c-0.225-0.019-0.393-0.216-0.374-0.441
					c0-0.001,0-0.006,0-0.007c0.216-2.25-0.173-4.532-1.11-6.602c-0.925-2.08-2.298-3.951-3.756-5.738
					c-2.929-3.566-6.248-6.917-8.618-10.97c-2.467-3.997-3.667-8.648-4.076-13.27C112.006,216.979,112.312,212.286,113.325,207.751"
					/>
			</g>
		</g>
		<g opacity="0.25" clip-path="url(#SVGID_8_)">
			<g>
				<defs>
					<rect id="SVGID_43_" x="139.47" y="234.164" width="14.931" height="26.405"/>
				</defs>
				<clipPath id="SVGID_44_">
					<use xlink:href="#SVGID_43_"  overflow="visible"/>
				</clipPath>
				<path clip-path="url(#SVGID_44_)" d="M154.401,234.164c-1.649,1.893-3.185,3.88-4.654,5.912c-1.457,2.04-2.855,4.123-4.109,6.29
					c-2.499,4.315-4.633,8.943-5.352,13.84l-0.002,0.014c-0.033,0.224-0.241,0.378-0.465,0.346
					c-0.223-0.033-0.378-0.241-0.345-0.465c0-0.003,0.001-0.008,0.002-0.012c0.887-5.06,3.182-9.658,5.812-13.934
					c1.32-2.145,2.779-4.197,4.295-6.2C151.109,237.958,152.7,236.011,154.401,234.164"/>
			</g>
		</g>
		<path clip-path="url(#SVGID_8_)" fill="#B8E3E2" d="M150.924,260.525l-3.667,22.512c-0.182,0.944-1.007,1.63-1.972,1.63H122.44
			c-0.965,0-1.79-0.686-1.973-1.63l-2.98-18.277l-0.686-4.234c-0.225-1.233,0.718-2.369,1.973-2.369h30.177
			C150.206,258.156,151.149,259.292,150.924,260.525"/>
		<path clip-path="url(#SVGID_8_)" fill="#86BFBC" d="M154.397,265.113h-41.069l1.083-6.132c0.236-1.286,1.35-2.229,2.658-2.229
			h33.598c1.296,0,2.422,0.943,2.647,2.229L154.397,265.113z"/>
		<g opacity="0.25" clip-path="url(#SVGID_8_)">
			<g>
				<defs>
					<rect id="SVGID_45_" x="126.289" y="220.506" width="23.295" height="36.246"/>
				</defs>
				<clipPath id="SVGID_46_">
					<use xlink:href="#SVGID_45_"  overflow="visible"/>
				</clipPath>
				<path clip-path="url(#SVGID_46_)" d="M139.121,248.111c0,0-0.568,4.642,0.279,8.641h-5.371c0.257-1.169,0.386-2.487,0.407-3.881
					c0.054-5.843-2.037-13.176-6.014-17.946c-0.707-0.847-1.415-1.683-2.133-2.541v-0.01c0.086-3.291,0.836-7.236,2.723-11.867
					c0.311,5.413,1.64,14.826,7.043,15.823c4.106,0.75,9.455-3.324,13.529-7.269c-2.155,3.87-4.224,7.837-5.939,11.696
					C140.579,244.381,139.121,248.111,139.121,248.111"/>
			</g>
		</g>
		<g opacity="0.25" clip-path="url(#SVGID_8_)">
			<g>
				<defs>
					<rect id="SVGID_47_" x="117.541" y="265.113" width="18.536" height="19.554"/>
				</defs>
				<clipPath id="SVGID_48_">
					<use xlink:href="#SVGID_47_"  overflow="visible"/>
				</clipPath>
				<path clip-path="url(#SVGID_48_)" d="M136.077,284.667h-13.636c-0.965,0-1.791-0.686-1.973-1.63l-2.927-17.924h11.782
					c-0.289,2.509-0.643,7.193,0.247,10.827C130.266,278.824,132.796,282.534,136.077,284.667"/>
			</g>
		</g>
		<path clip-path="url(#SVGID_8_)" fill="#383873" d="M240.618,99.232h-60.896c-2.202,0-3.988-1.786-3.988-3.988V49.323
			c0-2.202,1.786-3.988,3.988-3.988h60.896c2.203,0,3.988,1.786,3.988,3.988v45.921C244.606,97.446,242.821,99.232,240.618,99.232"
			/>
		<path clip-path="url(#SVGID_8_)" fill="#FFFFFF" d="M191.77,64.399V70.2c0,0.464,0.376,0.841,0.841,0.841h3.212
			c0.465,0,0.841-0.377,0.841-0.841v-5.801c0-0.465,0.377-0.841,0.841-0.841h0.31c0.465,0,0.842,0.376,0.842,0.841v15.77
			c0,0.464-0.377,0.841-0.842,0.841h-0.31c-0.464,0-0.841-0.377-0.841-0.841v-6.475c0-0.464-0.376-0.841-0.841-0.841h-3.212
			c-0.465,0-0.841,0.377-0.841,0.841v6.475c0,0.464-0.377,0.841-0.841,0.841h-0.312c-0.465,0-0.841-0.377-0.841-0.841v-15.77
			c0-0.465,0.376-0.841,0.841-0.841h0.312C191.393,63.559,191.77,63.935,191.77,64.399"/>
		<path clip-path="url(#SVGID_8_)" fill="#FFFFFF" d="M202.964,65.345h-1.502c-0.464,0-0.841-0.376-0.841-0.841V64.4
			c0-0.465,0.377-0.842,0.841-0.842h6.681c0.465,0,0.841,0.377,0.841,0.842v0.104c0,0.465-0.376,0.841-0.841,0.841h-1.502
			c-0.465,0-0.842,0.377-0.842,0.841v13.983c0,0.465-0.376,0.842-0.841,0.842h-0.311c-0.465,0-0.842-0.377-0.842-0.842V66.186
			C203.805,65.722,203.429,65.345,202.964,65.345"/>
		<path clip-path="url(#SVGID_8_)" fill="#FFFFFF" d="M221.384,73.501c-0.13-2.305-0.26-4.868-0.181-6.836h-0.104
			c-0.389,1.942-0.855,4.013-1.399,6.059l-2.149,8.183h-1.269l-2.045-7.846c-0.57-2.227-1.087-4.376-1.424-6.396h-0.077
			c0,2.045-0.105,4.48-0.207,6.966l-0.3,6.576c-0.021,0.449-0.391,0.803-0.841,0.803h-0.09c-0.484,0-0.869-0.407-0.84-0.891
			l0.936-15.769c0.026-0.445,0.394-0.792,0.84-0.792h0.703c0.384,0,0.719,0.26,0.815,0.632l1.884,7.343
			c0.595,2.305,1.036,4.013,1.398,6.008h0.077c0.337-1.995,0.725-3.652,1.295-6.008l1.811-7.335c0.092-0.376,0.429-0.64,0.816-0.64
			h0.773c0.446,0,0.814,0.348,0.84,0.793l0.912,15.769c0.029,0.483-0.356,0.89-0.84,0.89h-0.17c-0.45,0-0.819-0.352-0.841-0.801
			L221.384,73.501z"/>
		<path clip-path="url(#SVGID_8_)" fill="#FFFFFF" d="M227.166,63.558h0.312c0.464,0,0.841,0.376,0.841,0.841v14.087
			c0,0.465,0.377,0.842,0.841,0.842h3.236c0.465,0,0.842,0.376,0.842,0.841c0,0.464-0.377,0.841-0.842,0.841h-5.23
			c-0.464,0-0.841-0.377-0.841-0.841v-15.77C226.325,63.934,226.702,63.558,227.166,63.558"/>
		<path clip-path="url(#SVGID_8_)" fill="#383873" d="M266.017,49.953c2.186,0,2.702-1.471,2.702-2.782
			c0-1.153-0.119-2.266-0.237-3.379c-0.119-1.192-0.239-2.266-0.239-3.498c0-3.577,2.187-5.087,5.008-5.087h0.478v2.066h-0.597
			c-1.669,0-2.345,1.193-2.345,2.981c0,1.074,0.12,2.068,0.238,3.021c0.08,1.034,0.199,1.988,0.199,2.942
			c0.039,3.1-1.034,4.173-2.742,4.65v0.08c1.708,0.517,2.781,1.589,2.742,4.73c0,0.993-0.119,1.987-0.199,2.981
			c-0.118,0.994-0.238,1.987-0.238,3.06c0,1.789,0.596,3.021,2.385,3.021h0.557v2.067h-0.517c-2.623,0-4.969-1.311-4.969-5.088
			c0-1.192,0.12-2.385,0.239-3.537c0.118-1.153,0.237-2.306,0.237-3.418c0-1.272-0.517-2.823-2.702-2.823V49.953z"/>
		<path clip-path="url(#SVGID_8_)" fill="#383873" d="M306.537,51.94c-2.186,0-2.702,1.55-2.702,2.822
			c0,1.113,0.118,2.266,0.237,3.419c0.119,1.152,0.239,2.344,0.239,3.537c0,3.776-2.345,5.088-4.969,5.088h-0.517v-2.067h0.557
			c1.789-0.199,2.385-1.232,2.385-3.021c0-1.073-0.12-2.067-0.199-3.061c-0.119-0.993-0.238-1.987-0.238-2.981
			c-0.039-3.14,1.033-4.213,2.742-4.73v-0.079c-1.709-0.477-2.781-1.55-2.742-4.651c0-0.954,0.119-1.907,0.238-2.941
			c0.079-0.954,0.199-1.947,0.199-3.021c0-1.788-0.677-2.782-2.345-2.981h-0.597v-2.066h0.478c2.821,0,5.008,1.509,5.008,5.087
			c0,1.232-0.12,2.306-0.239,3.498c-0.119,1.113-0.237,2.226-0.237,3.378c0,1.312,0.517,2.783,2.702,2.783V51.94z"/>
		<polygon clip-path="url(#SVGID_8_)" fill="#FF6224" points="292.898,54.83 292.898,47.184 286.277,43.36 279.655,47.184 
			279.655,54.83 286.277,58.653 		"/>
		<path clip-path="url(#SVGID_8_)" fill="#FF6224" d="M342.717,92.927c-6.223-3.099-13.709-1.875-18.628,3.043
			c-6.072,6.073-6.274,15.806-0.642,22.144l-2.427-0.289c-0.295-0.034-0.561,0.175-0.596,0.469
			c-0.035,0.295,0.175,0.561,0.469,0.596l3.697,0.439c0.147,0.018,0.287-0.026,0.395-0.11c0.108-0.085,0.184-0.211,0.201-0.358
			l0.425-3.578c0.035-0.294-0.175-0.56-0.469-0.595c-0.294-0.035-0.561,0.175-0.596,0.469l-0.271,2.278
			c-5.288-5.917-5.11-15.026,0.57-20.706c4.593-4.593,11.583-5.736,17.392-2.844c0.267,0.134,0.588,0.024,0.721-0.24
			C343.09,93.38,342.982,93.059,342.717,92.927"/>
		<path clip-path="url(#SVGID_8_)" fill="#FF6224" d="M328.801,122.591c6.224,3.099,13.71,1.875,18.629-3.043
			c6.072-6.073,6.274-15.806,0.643-22.144l2.426,0.289c0.294,0.034,0.561-0.175,0.596-0.469c0.035-0.295-0.175-0.561-0.469-0.596
			l-3.697-0.439c-0.148-0.018-0.287,0.026-0.396,0.11c-0.107,0.085-0.183,0.211-0.2,0.358l-0.426,3.578
			c-0.035,0.294,0.175,0.56,0.469,0.595c0.294,0.035,0.561-0.175,0.596-0.469l0.271-2.278c5.287,5.917,5.109,15.026-0.57,20.706
			c-4.593,4.593-11.583,5.736-17.393,2.844c-0.266-0.134-0.587-0.024-0.72,0.24C328.428,122.138,328.536,122.459,328.801,122.591"/>
		<path clip-path="url(#SVGID_8_)" fill="#FF6224" d="M472.17,152.683h-97.021c-1.768,0-3.201-1.434-3.201-3.202
			c0-1.769,1.434-3.202,3.201-3.202h97.021c1.769,0,3.202,1.433,3.202,3.202C475.372,151.249,473.938,152.683,472.17,152.683"/>
		<path clip-path="url(#SVGID_8_)" fill="#20C3C5" d="M437.526,166.602H375.15c-1.769,0-3.202-1.434-3.202-3.202
			c0-1.768,1.434-3.202,3.202-3.202h62.376c1.768,0,3.201,1.434,3.201,3.202C440.728,165.167,439.294,166.602,437.526,166.602"/>
		<path clip-path="url(#SVGID_8_)" fill="#20C3C5" d="M437.526,181.546H375.15c-1.769,0-3.202-1.434-3.202-3.202
			c0-1.769,1.434-3.202,3.202-3.202h62.376c1.768,0,3.201,1.433,3.201,3.202C440.728,180.112,439.294,181.546,437.526,181.546"/>
		<path clip-path="url(#SVGID_8_)" fill="#20C3C5" d="M128.163,99.479H77.767c-1.768,0-3.202-1.434-3.202-3.202
			c0-1.768,1.434-3.202,3.202-3.202h50.396c1.769,0,3.202,1.434,3.202,3.202C131.365,98.045,129.932,99.479,128.163,99.479"/>
		<path clip-path="url(#SVGID_8_)" fill="#FF6224" d="M109.137,113.398H77.768c-1.769,0-3.202-1.434-3.202-3.202
			c0-1.769,1.433-3.202,3.202-3.202h31.369c1.769,0,3.202,1.433,3.202,3.202C112.339,111.964,110.906,113.398,109.137,113.398"/>
		<path clip-path="url(#SVGID_8_)" fill="#FF6224" d="M109.137,128.343H77.768c-1.769,0-3.202-1.434-3.202-3.202
			c0-1.769,1.433-3.202,3.202-3.202h31.369c1.769,0,3.202,1.433,3.202,3.202C112.339,126.909,110.906,128.343,109.137,128.343"/>
	</g>
</g>
</svg>
